<?xml version="1.0" encoding="UTF-8"?>
<svg width="60px" height="61px" viewBox="0 0 60 61" version="1.1" xmlns="http://www.w3.org/2000/svg" xmlns:xlink="http://www.w3.org/1999/xlink">
    <!-- Generator: Sketch 47.1 (45422) - http://www.bohemiancoding.com/sketch -->
    <title>icon_Horse-Manager</title>
    <desc>Created with Sketch.</desc>
    <defs></defs>
    <g id="Design-v2" stroke="none" stroke-width="1" fill="none" fill-rule="evenodd">
        <g id="Sign-Up" transform="translate(-72.000000, -275.000000)" fill-rule="nonzero" fill="#FFFFFF">
            <g id="icon_Horse-Manager" transform="translate(72.000000, 275.000000)">
                <path d="M60,39.4672908 C55.963754,26.4460232 46.9645884,15.9436298 35.7739322,11.1325739 C35.7150178,7.14143036 34.2470688,3.42256423 31.6579063,0.802664001 L30.8650175,0 L30.0003268,0.724430441 C27.8358385,2.53735458 26.2390144,5.47080506 25.1926711,8.42211989 C25.19083,8.42211989 25.1883753,8.42150388 25.1865342,8.42150388 C24.9490358,8.39193529 24.511474,8.34327032 23.9266265,8.30754161 C23.0938477,5.65684077 21.5270945,3.36897116 19.4301122,1.77781144 L17.8744054,0.597531911 L17.4871663,2.51641016 C16.8587467,5.63466432 16.792468,8.75784658 16.7857174,9.43299604 C16.4457326,9.62457586 16.1247722,9.83894813 15.8455428,10.0945932 C13.5392918,12.2056673 0.768381075,38.5032315 0.664053597,38.7459404 C-0.989230088,42.6003292 0.762244165,44.0411819 2.45664515,45.4333697 C2.6450483,45.5886048 2.84142944,45.75 3.04394748,45.9224834 C4.55915068,47.2148772 6.58126269,47.9448518 8.57575859,47.9448518 C8.82614454,47.9448518 9.07653049,47.9331475 9.32507536,47.9097391 C11.2852046,47.7255514 12.9513758,46.8446538 14.1437775,45.3637603 C15.4374382,43.7565843 16.3769992,42.339756 16.9649152,40.6099935 C18.5562161,40.5391521 20.1984534,40.0925432 21.7510917,39.3342321 C21.8885585,40.5945932 21.9634288,41.8660426 21.9634288,43.1337958 C21.9634288,49.058602 20.5046852,54.7357711 17.6277016,60.0082202 C17.6277016,60.0082202 19.8578548,61.0431209 19.8977447,60.9685834 C20.3150547,60.9790556 20.7360467,61 21.1472197,61 C37.7457215,61 52.465715,53.2197649 59.9588827,40.0093816 L60,39.4672908 Z M44.8160561,29.6351188 C46.3490563,27.8382109 47.658673,25.9051644 48.7301776,23.8612357 C49.5371813,24.8061985 50.3067499,25.7930502 51.039497,26.8174786 C49.748291,29.0345068 48.1931979,31.1086201 46.391401,33.009634 C45.9090398,31.854611 45.3806518,30.7310046 44.8160561,29.6351188 Z M47.3690108,35.5309723 C49.361052,33.5541889 51.0941155,31.3870577 52.5534728,29.0628434 C53.2481711,30.1692014 53.891933,31.3192963 54.4982598,32.4977278 C52.9100273,35.2051018 50.9726047,37.722744 48.7160627,40.0106136 C48.3312784,38.4853672 47.885125,36.9884573 47.3690108,35.5309723 Z M46.9664295,21.9103248 C46.0434382,23.8187308 44.8939948,25.6285749 43.538965,27.3195286 C42.9406162,26.3086524 42.305446,25.331041 41.6365228,24.3860781 C42.7473036,22.8429674 43.6690675,21.2031427 44.3932229,19.4881645 C45.2781654,20.2563318 46.1410151,21.0571478 46.9664295,21.9103248 Z M35.5824606,13.7506261 C36.2654987,14.0641764 36.9393315,14.4005191 37.6033452,14.7590382 C37.2210157,15.9319256 36.7472462,17.0684683 36.1752861,18.1569619 C35.6739005,17.6974168 35.1596274,17.257584 34.636149,16.8300715 C35.0663464,15.8604682 35.3934437,14.8175594 35.5824606,13.7506261 Z M39.780721,16.0274075 C40.6773236,16.5953708 41.5456965,17.2175432 42.398727,17.8655881 C41.800992,19.4216352 41.0259002,20.916697 40.0771338,22.3285971 C39.4125064,21.5049887 38.7202629,20.7134129 37.9997896,19.9551018 C38.7073754,18.7002848 39.3044968,17.3887946 39.780721,16.0274075 Z M19.5332123,5.25396873 C20.2776195,6.14164243 20.8796504,7.17161496 21.3196669,8.29830142 C20.6495163,8.33834222 19.9505222,8.42027185 19.265643,8.5582586 C19.2975549,7.76237074 19.3699704,6.571619 19.5332123,5.25396873 Z M24.4175793,43.1350279 C24.4175793,41.3960252 24.2880905,39.6502464 24.0475236,37.9315721 C25.2380843,37.0469785 26.3157257,35.9757332 27.1908492,34.7511007 C29.2804672,31.8268905 30.0997447,28.2269147 29.4387995,24.8751919 L27.0306758,25.3532174 C27.5602912,28.039647 26.8913679,30.9416808 25.1957396,33.3157921 C22.9336744,36.4814792 18.9502058,38.5007675 15.7215772,38.1169918 L15.0710647,38.023358 C14.7261703,40.3697487 13.8449099,41.8149136 12.2339709,43.8163375 C11.2649528,45.0200254 9.99277122,45.3730005 9.09555491,45.4573942 C7.53555227,45.6046211 5.82703639,45.0631463 4.6334073,44.044878 C4.41984281,43.8625384 4.21180155,43.691903 4.01235196,43.5274277 C2.42350583,42.2214817 1.99637686,41.8709707 2.91875451,39.7204718 C3.53735509,38.2894753 15.7792641,13.5615103 17.4994401,11.9124455 C18.3984975,11.088837 20.3107588,10.7795989 22.1364897,10.736478 C22.9072856,10.7395581 23.6805364,10.7722067 24.4507186,10.8313439 C24.0217486,12.493345 23.7774996,14.0604803 23.7167441,15.3196094 L26.1684399,15.4391158 C26.2629483,13.4875889 26.8815489,10.5978753 28.001535,7.93054209 L29.6235205,4.85787284 C29.9628916,4.34966271 30.3243557,3.87225319 30.7122084,3.44597269 C32.5048,5.74123445 33.462158,8.88228106 33.3068942,12.0849289 C33.1473345,15.3768985 31.2043886,18.5025448 29.4891221,19.3557218 L30.5790374,21.5635099 C31.624767,21.0429795 32.5937852,20.1411375 33.404471,19.0076749 C41.7402365,25.9926381 47.0431409,37.420898 47.7587047,49.9678361 C40.4594633,55.4213928 31.1209266,58.5371829 21.1472197,58.5371829 C23.2994342,53.6608297 24.4175793,48.4943347 24.4175793,43.1350279 Z M50.0925717,48.0822225 C49.9323983,46.3044111 49.6813987,44.5512401 49.3487782,42.8294858 C51.8213394,40.4984953 53.9680307,37.9217159 55.7587812,35.1373404 C56.3761544,36.5443125 56.9266352,37.9931734 57.4120648,39.478379 C55.4267743,42.7050513 52.9505309,45.5892208 50.0925717,48.0822225 Z" id="Shape"></path>
            </g>
        </g>
    </g>
</svg>