<?xml version="1.0" encoding="UTF-8"?>
<svg width="27px" height="28px" viewBox="0 0 27 28" version="1.1" xmlns="http://www.w3.org/2000/svg" xmlns:xlink="http://www.w3.org/1999/xlink">
    <!-- Generator: Sketch 47.1 (45422) - http://www.bohemiancoding.com/sketch -->
    <title>Tab-Bar_Horse-unselected</title>
    <desc>Created with Sketch.</desc>
    <defs></defs>
    <g id="Symbols" stroke="none" stroke-width="1" fill="none" fill-rule="evenodd">
        <g id="Tab-Bar/Payments" transform="translate(-47.000000, -4.000000)" fill-rule="nonzero" fill="#9B9B9B">
            <g id="Tab-Bar/3-Items">
                <g id="Item-1" transform="translate(38.000000, 4.000000)">
                    <path d="M36,17.7602808 C34.1836893,11.9007104 30.1340648,7.17463342 25.0982695,5.00965826 C25.071758,3.21364366 24.411181,1.5401539 23.2460578,0.3611988 L22.8892579,0 L22.5001471,0.325993698 C21.5261273,1.14180956 20.8075565,2.46186228 20.336702,3.78995395 C20.3358735,3.78995395 20.3347689,3.78967675 20.3339404,3.78967675 C20.2270661,3.77637088 20.0301633,3.75447164 19.7669819,3.73839372 C19.3922315,2.54557834 18.6871925,1.51603702 17.7435505,0.800015148 L17.0434824,0.26888936 L16.8692248,1.13238457 C16.586436,2.53559895 16.5566106,3.94103096 16.5535728,4.24484822 C16.4005797,4.33105914 16.2561475,4.42752666 16.1304942,4.54256695 C15.0926813,5.49255029 9.34577148,17.3264542 9.29882412,17.4356732 C8.55484646,19.1701481 9.34300987,19.8185319 10.1054903,20.4450164 C10.1902717,20.5148722 10.2786432,20.5875 10.3697764,20.6651175 C11.0516178,21.2466947 11.9615682,21.5751833 12.8590914,21.5751833 C12.971765,21.5751833 13.0844387,21.5699164 13.1962839,21.5593826 C14.0783421,21.4764981 14.8281191,21.0800942 15.3646999,20.4136921 C15.9468472,19.6904629 16.3696496,19.0528902 16.6342119,18.2744971 C17.3502973,18.2426185 18.089304,18.0416444 18.7879913,17.7004044 C18.8498513,18.267567 18.883543,18.8397192 18.883543,19.4102081 C18.883543,22.0763709 18.2271083,24.631097 16.9324657,27.0036991 C16.9324657,27.0036991 17.9360347,27.4694044 17.9539851,27.4358625 C18.1417746,27.440575 18.331221,27.45 18.5162489,27.45 C25.9855747,27.45 32.6095717,23.9488942 35.9814972,18.0042217 L36,17.7602808 Z M17.6634461,1.8 C18.2724687,2.49463348 18.5400089,3.05404535 18.9,3.93571407 C18.351729,3.96704729 17.8853209,4.05273496 17.325,4.16071407 C17.3511081,3.53790598 17.5298929,2.8311041 17.6634461,1.8 Z M19.9879107,19.4107625 C19.9879107,18.6282113 19.9296407,17.8426109 19.8213856,17.0692075 C20.3571379,16.6711403 20.8420766,16.1890799 21.2358821,15.6379953 C22.1762102,14.3221007 22.5448851,12.7021116 22.2474598,11.1938363 L21.1638041,11.4089478 C21.402131,12.6178411 21.1011156,13.9237564 20.3380828,14.9921065 C19.3201535,16.4166657 17.5275926,17.3253454 16.0747097,17.1526463 L15.7819791,17.1105111 C15.6267766,18.1663869 15.2302095,18.8167111 14.5052869,19.7173519 C14.0692287,20.2590115 13.4967471,20.4178502 13.0929997,20.4558274 C12.3909985,20.5220795 11.6221664,20.2784158 11.0850333,19.8201951 C10.9889293,19.7381423 10.8953107,19.6613563 10.8055584,19.5873425 C10.0905776,18.9996667 9.89836959,18.8419368 10.3134395,17.8742123 C10.5918098,17.2302639 16.1006689,6.10267965 16.8747481,5.36060046 C17.2793239,4.98997667 18.1398415,4.8508195 18.9614204,4.83141511 C19.3082785,4.83280114 19.6562414,4.84749303 20.0028234,4.87410476 C19.8097869,5.62200527 19.6998748,6.32721613 19.6725349,6.89382422 L20.7757979,6.9476021 C20.8183267,6.06941499 21.096697,4.76904387 21.6006908,3.56874394 L22.3305842,2.18604278 C22.4833012,1.95734822 22.64596,1.74251394 22.8204938,1.55068771 C23.62716,2.5835555 24.0579711,3.99702648 23.9881024,5.43821801 C23.9163005,6.91960434 23.0419749,8.32614518 22.270105,8.71007483 L22.7605669,9.70357944 C23.2311451,9.46934077 23.6672033,9.06351188 24.032012,8.55345371 C27.7831064,11.6966872 30.1694134,16.8394041 30.4914171,22.4855262 C27.2067585,24.9396268 23.004417,26.3417323 18.5162489,26.3417323 C19.4847454,24.1473734 19.9879107,21.8224506 19.9879107,19.4107625 Z" id="Tab-Bar_Horse-unselected"></path>
                </g>
            </g>
        </g>
    </g>
</svg>