<?xml version="1.0" encoding="UTF-8"?>
<svg width="53px" height="46px" viewBox="0 0 53 46" version="1.1" xmlns="http://www.w3.org/2000/svg" xmlns:xlink="http://www.w3.org/1999/xlink">
    <!-- Generator: Sketch 47.1 (45422) - http://www.bohemiancoding.com/sketch -->
    <title>icon_Service-Provider</title>
    <desc>Created with Sketch.</desc>
    <defs></defs>
    <g id="Design-v2" stroke="none" stroke-width="1" fill="none" fill-rule="evenodd">
        <g id="Sign-Up" transform="translate(-245.000000, -283.000000)" fill-rule="nonzero" fill="#FFFFFF">
            <g id="icon_Service-Provider" transform="translate(245.000000, 283.000000)">
                <path d="M30.2285714,0 L22.452381,0 C19.1119048,0 16.4285714,2.68333333 16.4285714,6.02380952 L16.4285714,7.55714286 L8.21428571,7.55714286 C3.66904762,7.55714286 0,11.2261905 0,15.7714286 L0,37.7857143 C0,42.3309524 3.66904762,46 8.21428571,46 L44.4119048,46 C48.9571429,46 52.6261905,42.3309524 52.6261905,37.7857143 L52.6261905,15.8261905 C52.6261905,11.2809524 48.9571429,7.61190476 44.4119048,7.61190476 L36.197619,7.61190476 L36.197619,6.02380952 C36.252381,2.73809524 33.5690476,0 30.2285714,0 Z M38.4428571,10.897619 L38.4428571,42.7142857 L14.2380952,42.7142857 L14.2380952,10.897619 L38.4428571,10.897619 Z M19.7142857,6.02380952 C19.7142857,4.49047619 20.9190476,3.28571429 22.452381,3.28571429 L30.2285714,3.28571429 C31.7619048,3.28571429 32.9666667,4.49047619 32.9666667,6.02380952 L32.9666667,7.55714286 L19.7142857,7.55714286 L19.7142857,6.02380952 Z M3.28571429,37.7857143 L3.28571429,15.8261905 C3.28571429,13.0880952 5.47619048,10.897619 8.21428571,10.897619 L10.952381,10.897619 L10.952381,42.7142857 L8.21428571,42.7142857 C5.53095238,42.7142857 3.28571429,40.4690476 3.28571429,37.7857143 Z M49.3952381,15.8261905 L49.3952381,37.7857143 C49.3952381,40.5238095 47.2047619,42.7142857 44.4666667,42.7142857 L41.7285714,42.7142857 L41.7285714,10.897619 L44.4666667,10.897619 C47.15,10.897619 49.3952381,13.0880952 49.3952381,15.8261905 Z" id="Shape"></path>
            </g>
        </g>
    </g>
</svg>